<mxfile host="app.diagrams.net" modified="2021-01-10T03:31:53.917Z" agent="5.0 (Macintosh; Intel Mac OS X 10_15_6) AppleWebKit/537.36 (KHTML, like Gecko) Chrome/86.0.4240.193 Safari/537.36" etag="w-ccBInQJjx7dXdYtcfe" version="14.1.9" type="github">
  <diagram id="s5eiBG6jUcfABKmq3xyw" name="Page-1">
    <mxGraphModel dx="946" dy="536" grid="1" gridSize="10" guides="1" tooltips="1" connect="1" arrows="1" fold="1" page="1" pageScale="1" pageWidth="827" pageHeight="1169" math="0" shadow="0">
      <root>
        <mxCell id="0" />
        <mxCell id="1" parent="0" />
        <mxCell id="qulZ9qBM6tyK6yK-S74D-12" value="" style="shape=curlyBracket;whiteSpace=wrap;html=1;rounded=1;rotation=-180;size=0.5;" vertex="1" parent="1">
          <mxGeometry x="404" y="470" width="20" height="80" as="geometry" />
        </mxCell>
        <mxCell id="qulZ9qBM6tyK6yK-S74D-13" value="" style="shape=curlyBracket;whiteSpace=wrap;html=1;rounded=1;rotation=-180;" vertex="1" parent="1">
          <mxGeometry x="404" y="550" width="20" height="120" as="geometry" />
        </mxCell>
        <mxCell id="qulZ9qBM6tyK6yK-S74D-14" value="代码段" style="text;html=1;strokeColor=none;fillColor=none;align=center;verticalAlign=middle;whiteSpace=wrap;rounded=0;" vertex="1" parent="1">
          <mxGeometry x="450" y="500" width="40" height="20" as="geometry" />
        </mxCell>
        <mxCell id="qulZ9qBM6tyK6yK-S74D-15" value="数据段" style="text;html=1;strokeColor=none;fillColor=none;align=center;verticalAlign=middle;whiteSpace=wrap;rounded=0;" vertex="1" parent="1">
          <mxGeometry x="450" y="600" width="40" height="20" as="geometry" />
        </mxCell>
        <mxCell id="qulZ9qBM6tyK6yK-S74D-16" value="&lt;span&gt;Page 4k&lt;/span&gt;" style="rounded=0;whiteSpace=wrap;html=1;fillColor=#ffe6cc;strokeColor=#d79b00;" vertex="1" parent="1">
          <mxGeometry x="250" y="470" width="110" height="40" as="geometry" />
        </mxCell>
        <mxCell id="qulZ9qBM6tyK6yK-S74D-18" value="&lt;span&gt;Page 4k&lt;/span&gt;" style="rounded=0;whiteSpace=wrap;html=1;fillColor=#ffe6cc;strokeColor=#d79b00;" vertex="1" parent="1">
          <mxGeometry x="250" y="510" width="110" height="40" as="geometry" />
        </mxCell>
        <mxCell id="qulZ9qBM6tyK6yK-S74D-19" value="&lt;span&gt;Page 4k&lt;/span&gt;" style="rounded=0;whiteSpace=wrap;html=1;fillColor=#dae8fc;strokeColor=#6c8ebf;" vertex="1" parent="1">
          <mxGeometry x="250" y="550" width="110" height="40" as="geometry" />
        </mxCell>
        <mxCell id="qulZ9qBM6tyK6yK-S74D-20" value="&lt;span&gt;Page 4k&lt;/span&gt;" style="rounded=0;whiteSpace=wrap;html=1;fillColor=#dae8fc;strokeColor=#6c8ebf;" vertex="1" parent="1">
          <mxGeometry x="250" y="590" width="110" height="40" as="geometry" />
        </mxCell>
        <mxCell id="qulZ9qBM6tyK6yK-S74D-21" value="&lt;span&gt;Page 4k&lt;/span&gt;" style="rounded=0;whiteSpace=wrap;html=1;fillColor=#dae8fc;strokeColor=#6c8ebf;" vertex="1" parent="1">
          <mxGeometry x="250" y="630" width="110" height="40" as="geometry" />
        </mxCell>
      </root>
    </mxGraphModel>
  </diagram>
</mxfile>
